<svg version="1.1" id="Layer_1" xmlns="http://www.w3.org/2000/svg" xmlns:xlink="http://www.w3.org/1999/xlink" x="0px" y="0px"
	 width="100%" viewBox="0 0 768 576" enable-background="new 0 0 768 576" xml:space="preserve">
<path fill="#000000" opacity="1.000000" stroke="none" 
	d="
M436.920197,209.707672 
	C440.675385,210.335770 444.516846,208.056641 446.875580,212.906677 
	C449.280457,217.851654 450.017517,221.546310 444.963745,225.250763 
	C442.679291,226.925293 440.170410,228.838272 438.728058,232.240021 
	C449.522186,234.854111 459.931122,238.134750 468.775299,244.904053 
	C477.450073,251.543732 484.633331,259.405273 489.080170,269.561737 
	C482.926239,272.691681 479.307861,271.768066 475.580627,266.770142 
	C461.776917,248.260117 443.504547,239.921600 420.456116,243.265961 
	C414.235291,244.168625 411.079041,240.759415 407.689026,236.557114 
	C410.931335,233.284760 415.499512,234.315933 419.123291,231.982239 
	C417.613556,228.580276 414.502930,226.537247 411.994415,224.061050 
	C409.848572,221.942810 407.907349,220.048660 409.782440,216.817993 
	C411.700623,213.513184 412.436005,209.236649 417.966583,209.608414 
	C424.096680,210.020477 430.275635,209.706314 436.920197,209.707672 
z"/>
<path fill="#000000" opacity="1.000000" stroke="none" 
	d="
M415.128601,266.645721 
	C409.936615,268.094086 406.969940,266.210297 404.035889,262.092255 
	C377.898743,225.407944 326.986053,226.063965 301.642303,263.229736 
	C301.080444,264.053680 300.617004,264.997314 299.895111,265.650024 
	C297.329681,267.969635 293.996826,268.001282 291.616119,266.286194 
	C289.338867,264.645691 291.752136,262.405853 292.823151,260.677216 
	C307.285126,237.336411 328.618591,225.434601 355.717957,226.230774 
	C381.650421,226.992661 401.428772,239.861572 414.745392,262.287231 
	C415.489655,263.540649 416.439880,264.846405 415.128601,266.645721 
z"/>
<path fill="#000000" opacity="1.000000" stroke="none" 
	d="
M301.346436,329.948364 
	C303.367310,330.699829 304.273285,332.108978 305.349030,333.382660 
	C321.758270,352.811279 342.403839,359.650543 367.360779,354.919647 
	C375.694458,353.339905 382.876465,349.048615 390.858856,346.801453 
	C392.249847,346.409882 392.968231,345.393677 393.510651,344.062286 
	C395.575165,338.994934 399.852722,335.575989 403.272064,331.557709 
	C405.719696,328.681366 409.273193,329.582428 412.551147,330.427216 
	C409.119629,343.924469 383.818268,363.002258 359.701843,365.167542 
	C328.160797,367.999390 300.862213,347.931549 293.782257,330.710114 
	C296.029175,329.242218 298.543121,329.901978 301.346436,329.948364 
z"/>
<path fill="#000000" opacity="1.000000" stroke="none" 
	d="
M456.899719,358.079590 
	C438.589752,366.103607 420.602966,366.104980 402.426788,358.854462 
	C405.449432,350.846680 407.228729,349.939667 414.879395,351.778290 
	C438.614960,357.482239 458.117065,350.526123 473.635925,331.923492 
	C477.195984,327.656006 480.233002,326.866913 487.913971,329.191620 
	C480.479614,342.106079 470.672089,351.859833 456.899719,358.079590 
z"/>
<path fill="#000000" opacity="1.000000" stroke="none" 
	d="
M403.682129,306.986816 
	C408.980743,298.335022 414.005188,289.813538 418.942688,281.439514 
	C421.353363,282.084961 421.051239,283.615723 421.198914,284.854279 
	C422.320465,294.261322 423.414490,303.671692 424.503845,313.082520 
	C424.744110,315.158295 425.701996,317.615417 422.422089,318.198425 
	C419.062042,318.795685 418.622650,316.457550 418.372925,313.967499 
	C417.728485,307.541412 417.058929,301.117859 416.315521,293.875916 
	C410.612854,301.686798 406.930908,309.903076 402.410889,318.780518 
	C396.979553,311.066559 394.627319,302.768433 389.204468,295.449402 
	C386.272095,301.268250 387.716370,307.135834 386.353699,312.484314 
	C386.152802,313.272888 386.289642,314.143311 386.229614,314.972900 
	C386.116760,316.533478 385.907776,318.109039 383.813934,318.037689 
	C381.631348,317.963348 381.578522,316.217926 381.765106,314.766663 
	C382.505219,309.010651 383.305420,303.258545 384.269073,297.536255 
	C385.166168,292.209503 385.141663,286.710052 387.198822,279.965424 
	C390.570099,285.980255 393.141266,290.880676 396.014740,295.596863 
	C398.386658,299.489838 399.490021,304.216492 403.682129,306.986816 
z"/>
<path fill="#000000" opacity="1.000000" stroke="none" 
	d="
M222.825989,299.111908 
	C224.344757,293.090912 223.352310,287.083649 226.020630,280.568634 
	C232.245544,289.407135 235.390411,299.163025 241.899612,307.538422 
	C248.643723,299.476593 251.667282,289.398163 258.274170,280.870392 
	C260.862823,286.318817 260.167755,291.578491 261.067749,296.524231 
	C262.076324,302.066589 262.557861,307.710907 263.114960,313.326080 
	C263.313263,315.324951 264.155334,317.948456 260.670135,318.190796 
	C257.627808,318.402374 257.162872,316.243805 256.954102,313.967010 
	C256.395844,307.879150 255.880600,301.787354 255.212112,294.139557 
	C248.797852,302.025848 246.023834,310.378967 240.871613,318.768707 
	C236.295242,310.181458 232.211273,302.518158 227.727722,294.105103 
	C226.032181,300.200714 225.874329,305.741760 225.299393,311.211792 
	C225.160370,312.534607 225.228790,313.879150 225.092056,315.202332 
	C224.928085,316.788849 224.452896,318.221680 222.436234,318.133789 
	C220.076920,318.030975 220.453705,316.278381 220.640884,314.838165 
	C221.303726,309.737976 222.057358,304.649597 222.825989,299.111908 
z"/>
<path fill="#000000" opacity="1.000000" stroke="none" 
	d="
M470.252197,300.862152 
	C469.510895,309.747437 465.496185,315.879974 457.173065,318.210785 
	C448.577209,320.617920 440.064331,320.219482 433.773682,312.945801 
	C428.096222,306.381042 427.233185,298.568176 430.698303,290.548157 
	C434.262939,282.297852 444.499146,278.010223 454.857971,280.199188 
	C464.911438,282.323608 470.090179,289.120331 470.252197,300.862152 
M435.457916,296.136230 
	C435.429993,298.125885 435.242371,300.128326 435.401031,302.102997 
	C436.189301,311.914551 444.013275,318.170959 452.537964,316.062714 
	C458.755096,314.525208 462.380280,310.647369 463.168488,304.417145 
	C464.057983,297.386902 464.360565,290.261627 457.787292,285.380707 
	C449.112030,278.938995 439.065369,283.525787 435.457916,296.136230 
z"/>
<path fill="#000000" opacity="1.000000" stroke="none" 
	d="
M346.647827,304.518677 
	C345.424103,303.495636 344.811188,302.085907 342.858185,302.336945 
	C341.928406,305.987335 342.276947,309.700378 342.830719,313.443878 
	C343.150574,315.606293 343.536774,317.958252 340.253052,318.247681 
	C336.780396,318.553711 336.672760,316.267761 336.683685,313.738129 
	C336.724487,304.265442 336.811584,294.790558 336.643768,285.320709 
	C336.582001,281.836456 337.867828,280.489380 341.291260,280.689270 
	C344.273041,280.863434 347.282196,280.585236 350.261658,280.778717 
	C354.929077,281.081787 359.205383,282.115204 360.544983,287.598969 
	C361.690979,292.290253 359.869629,296.102051 354.872223,299.088959 
	C353.892944,299.674286 352.888092,300.216705 351.605957,300.942596 
	C354.779358,307.169983 360.322937,311.430786 364.104218,317.569183 
	C360.254822,318.772949 357.516846,318.764221 355.184967,315.340942 
	C352.666809,311.644165 349.664429,308.277252 346.647827,304.518677 
M342.382874,295.107483 
	C342.583160,298.015076 344.670807,298.027496 346.735718,297.811615 
	C350.078827,297.462067 352.901306,296.062805 354.214783,292.794189 
	C355.209320,290.319214 354.935791,287.790985 352.835785,285.902191 
	C350.627991,283.916412 347.911255,282.840973 345.000061,283.725769 
	C342.303955,284.545166 343.092621,287.307556 342.711884,289.310120 
	C342.403656,290.931061 342.459198,292.621124 342.382874,295.107483 
z"/>
<path fill="#000000" opacity="1.000000" stroke="none" 
	d="
M509.295837,285.274963 
	C509.300049,296.638763 509.300049,307.537476 509.300049,318.436188 
	C508.775665,318.621155 508.251282,318.806122 507.726868,318.991089 
	C498.785492,310.602722 491.632935,300.420898 481.321747,291.361542 
	C481.321747,297.740265 481.325531,303.073273 481.320007,308.406281 
	C481.317596,310.735474 481.337280,313.065918 481.266052,315.393341 
	C481.230347,316.559784 481.108673,317.907776 479.509644,317.890411 
	C477.962585,317.873627 477.730103,316.589264 477.723724,315.389099 
	C477.689056,308.899994 477.695435,302.410645 477.691498,295.921387 
	C477.688416,290.837067 477.690887,285.752747 478.316895,280.425751 
	C488.222626,288.276978 495.300201,298.596008 505.272034,307.256073 
	C505.272034,299.339783 505.265839,292.175720 505.276855,285.011688 
	C505.279297,283.425232 504.678284,281.274567 507.125916,281.142883 
	C509.659943,281.006531 509.075012,283.269714 509.295837,285.274963 
z"/>
<path fill="#000000" opacity="1.000000" stroke="none" 
	d="
M271.137939,307.187256 
	C275.272614,297.948914 279.247223,289.054596 283.221832,280.160309 
	C283.837799,280.109039 284.453766,280.057770 285.069733,280.006531 
	C290.484375,292.427185 295.899048,304.847870 301.351654,317.355591 
	C297.200378,319.085052 294.827789,318.285736 293.655029,314.622711 
	C293.300415,313.515045 292.845398,312.438477 292.414185,311.356506 
	C289.534302,304.130371 286.166443,302.433105 278.649780,304.119019 
	C276.664429,304.564301 275.966949,305.909973 275.334595,307.452850 
	C274.261688,310.070618 273.233307,312.707703 272.242249,315.357635 
	C271.333435,317.787598 269.889160,318.901672 267.084930,317.544250 
	C267.226868,313.756958 269.876740,310.926208 271.137939,307.187256 
M283.368469,300.844971 
	C284.601257,300.642395 286.068298,301.219269 287.146271,299.488281 
	C286.234589,296.600220 285.411469,293.485565 282.959045,290.621216 
	C280.670746,293.625366 279.789185,296.714478 278.830994,299.630768 
	C279.926147,301.235199 281.365417,300.702515 283.368469,300.844971 
z"/>
<path fill="#000000" opacity="1.000000" stroke="none" 
	d="
M535.496948,292.437225 
	C537.277893,289.211548 538.930664,286.320190 540.455627,283.362885 
	C541.637329,281.071228 543.194946,280.114655 545.910400,281.485321 
	C545.057373,285.302643 542.651489,288.332123 540.456482,291.320679 
	C535.635803,297.884033 532.848511,304.843140 534.119934,313.157410 
	C534.485413,315.546722 534.813599,318.541199 530.751343,318.219208 
	C527.111267,317.930664 527.587158,315.130066 528.083191,312.985168 
	C529.547363,306.652954 527.753296,301.344421 524.274780,296.056854 
	C521.301270,291.536987 518.003967,287.105286 515.988098,281.602570 
	C519.623901,280.058929 522.008423,280.565002 523.925232,284.070770 
	C526.359863,288.523590 528.341064,293.303894 531.817993,297.152954 
	C533.855042,296.112488 534.223816,294.149292 535.496948,292.437225 
z"/>
<path fill="#000000" opacity="1.000000" stroke="none" 
	d="
M313.660095,297.030396 
	C313.660950,295.539215 313.664246,294.541473 313.663452,293.543762 
	C313.656860,285.294586 313.655792,285.304047 305.595886,284.597900 
	C304.309296,284.485199 302.629303,284.616699 302.509155,282.819550 
	C302.358276,280.563599 304.253967,280.750183 305.694366,280.740967 
	C312.677979,280.696198 319.662354,280.683502 326.645630,280.747772 
	C328.026154,280.760498 330.025360,280.427673 329.963104,282.687469 
	C329.903351,284.855927 327.900238,284.501404 326.533173,284.615173 
	C319.318634,285.215607 319.320740,285.183167 319.325470,292.410400 
	C319.330933,300.708649 319.326752,309.006866 319.326752,317.502441 
	C315.659912,318.977142 313.553040,318.483765 313.637848,313.985748 
	C313.741272,308.500244 313.661255,303.011322 313.660095,297.030396 
z"/>
<path fill="#000000" opacity="1.000000" stroke="none" 
	d="
M369.052795,306.969666 
	C369.027252,299.501282 368.972900,292.528351 368.991211,285.555603 
	C368.997406,283.195038 368.941772,280.692200 372.457031,280.771698 
	C376.050873,280.852966 375.673370,283.334076 375.542053,285.709595 
	C375.019440,295.164825 374.962189,304.622009 375.555573,314.074829 
	C375.690948,316.231689 375.771729,318.097748 372.831879,318.288422 
	C369.971100,318.473938 368.926605,317.067261 368.972198,314.437683 
	C369.012543,312.113800 369.026672,309.789398 369.052795,306.969666 
z"/>
</svg>